<svg xmlns="http://www.w3.org/2000/svg" viewBox="0 0 512 512" role="img" aria-labelledby="sym-title sym-desc">
  <title id="sym-title">Sura</title>
  <desc id="sym-desc">Sura woven S symbol</desc>
  <defs>
    <clipPath id="sc"><path d="M349 142c-27-27-62-41-104-41-50 0-88 21-88 55 0 32 27 45 91 58 77 16 119 39 119 98 0 65-57 104-132 104-58 0-106-20-140-58l38-42c28 29 61 44 104 44 47 0 78-17 78-45 0-28-25-40-88-53-81-17-122-44-122-103 0-67 60-112 143-112 57 0 104 17 137 50z"/></clipPath>
  </defs>
  <path d="M349 142c-27-27-62-41-104-41-50 0-88 21-88 55 0 32 27 45 91 58 77 16 119 39 119 98 0 65-57 104-132 104-58 0-106-20-140-58l38-42c28 29 61 44 104 44 47 0 78-17 78-45 0-28-25-40-88-53-81-17-122-44-122-103 0-67 60-112 143-112 57 0 104 17 137 50z" fill="#caf240"/>
  <rect x="194" y="244" width="124" height="18" rx="9" transform="rotate(-28 256 253)" fill="#17120f"/>
  <g clip-path="url(#sc)">
    <path d="M180 142 L202 118 L224 142 L202 166Z" fill="#17120f"/>
    <path d="M212 172 L234 148 L256 172 L234 196Z" fill="#e5a83b"/>
    <path d="M296 322 L318 302 L340 322 L318 342Z" fill="#17120f"/>
    <path d="M326 352 L348 332 L370 352 L348 372Z" fill="#e5a83b"/>
    <line x1="156" y1="204" x2="190" y2="184" stroke="#17120f" stroke-width="5"/>
    <line x1="162" y1="218" x2="196" y2="198" stroke="#e5a83b" stroke-width="4"/>
    <polyline points="304,298 318,284 332,298 346,284" fill="none" stroke="#17120f" stroke-width="5" stroke-linejoin="round"/>
  </g>
  <path d="M349 142c-27-27-62-41-104-41-50 0-88 21-88 55 0 32 27 45 91 58 77 16 119 39 119 98 0 65-57 104-132 104-58 0-106-20-140-58l38-42c28 29 61 44 104 44 47 0 78-17 78-45 0-28-25-40-88-53-81-17-122-44-122-103 0-67 60-112 143-112 57 0 104 17 137 50z" fill="none" stroke="#caf240" stroke-width="1.5"/>
</svg>